<mxfile host="app.diagrams.net" agent="Mozilla/5.0 (Macintosh; Intel Mac OS X 10_15_7) AppleWebKit/605.1.15 (KHTML, like Gecko) Version/18.1.1 Safari/605.1.15" version="26.0.4">
  <diagram name="第 1 页" id="eWlho-4njupO0lev5rUA">
    <mxGraphModel dx="2150" dy="1222" grid="0" gridSize="10" guides="1" tooltips="1" connect="1" arrows="1" fold="1" page="0" pageScale="1" pageWidth="827" pageHeight="1169" math="0" shadow="0">
      <root>
        <mxCell id="0" />
        <mxCell id="1" parent="0" />
        <mxCell id="oanOTafGp6MQvB_tRIH2-25" value="" style="rounded=1;whiteSpace=wrap;html=1;arcSize=7;" vertex="1" parent="1">
          <mxGeometry x="-59" y="16" width="753" height="758" as="geometry" />
        </mxCell>
        <mxCell id="oanOTafGp6MQvB_tRIH2-1" value="文本" style="whiteSpace=wrap;align=center;verticalAlign=middle;fontStyle=1;strokeWidth=3;fillColor=#FFFFCC" vertex="1" parent="1">
          <mxGeometry x="268" y="33" width="90" height="67" as="geometry" />
        </mxCell>
        <mxCell id="oanOTafGp6MQvB_tRIH2-2" value="切分出文本块" style="whiteSpace=wrap;align=center;verticalAlign=middle;fontStyle=1;strokeWidth=3;fillColor=#FFFFCC" vertex="1" parent="1">
          <mxGeometry x="268" y="161" width="90" height="67" as="geometry" />
        </mxCell>
        <mxCell id="oanOTafGp6MQvB_tRIH2-3" value="抽取出的实体" style="whiteSpace=wrap;align=center;verticalAlign=middle;fontStyle=1;strokeWidth=3;fillColor=#FFFFCC" vertex="1" parent="1">
          <mxGeometry x="192" y="524" width="90" height="67" as="geometry" />
        </mxCell>
        <mxCell id="oanOTafGp6MQvB_tRIH2-4" value="抽取出的关系" style="whiteSpace=wrap;align=center;verticalAlign=middle;fontStyle=1;strokeWidth=3;fillColor=#FFFFCC" vertex="1" parent="1">
          <mxGeometry x="397" y="522" width="90" height="67" as="geometry" />
        </mxCell>
        <mxCell id="oanOTafGp6MQvB_tRIH2-6" value="更新知识图谱" style="whiteSpace=wrap;align=center;verticalAlign=middle;fontStyle=1;strokeWidth=3;fillColor=#FFFFCC" vertex="1" parent="1">
          <mxGeometry x="284" y="682" width="90" height="67" as="geometry" />
        </mxCell>
        <mxCell id="oanOTafGp6MQvB_tRIH2-7" value="关系向量库" style="shape=cylinder3;whiteSpace=wrap;html=1;boundedLbl=1;backgroundOutline=1;size=15;fillColor=#dae8fc;strokeColor=#6c8ebf;" vertex="1" parent="1">
          <mxGeometry x="616" y="515.5" width="60" height="80" as="geometry" />
        </mxCell>
        <mxCell id="oanOTafGp6MQvB_tRIH2-8" value="实体向量库" style="shape=cylinder3;whiteSpace=wrap;html=1;boundedLbl=1;backgroundOutline=1;size=15;fillColor=#d5e8d4;strokeColor=#82b366;" vertex="1" parent="1">
          <mxGeometry x="-42" y="513.5" width="60" height="80" as="geometry" />
        </mxCell>
        <mxCell id="oanOTafGp6MQvB_tRIH2-14" value="" style="shape=image;verticalLabelPosition=bottom;labelBackgroundColor=default;verticalAlign=top;aspect=fixed;imageAspect=0;image=data:image/png,iVBORw0KGgoAAAANSUhEUgAAAMgAAADICAYAAACtWK6eAAAli0lEQVR4nO2dQXIbOdaggRRr8f+2Q6qoVsTsrDpBqU7g1AlML6e7+rd8AlH7rlay3HvRJxD9d3tmKfoESp7A0glM7SaiylF0lD2zaImYD6mUTFMUCSCBzCTFL+IFQNkkHh7eAx6QmaQUK5zZOk42Pv2/yx/EpYqFlBtCqW3+LJQQutxAJhli8FNKoaQcSKUGUkYDFanBb39+2efPK2qGRFYYsvkm2RajiycjIWJxJRuINxiMUyFlKoU8ffAgejt4lgz584oKYUxWzEIHhVKXz9VINIVUW6JEGJwU6a01Gm//z/9MBmJF6WD/FZPo1Onzp4vnIyVbZQfFXTBQKelY99effnnNyxUlIZEVOf/jfydb/768PGAvsSvqy1BK2W2srb1arSrhWQUILEhg3IZA+WZtrb0KlHDc6wDRqdSnz5cHSqkWLxcWVpTOwwdr7dWm3j/3NkA2//m3vZEQifB8ElUhw0hGrdUexS8SuVfodOri4uKIaxWxWEIY0FRGjf1f/5Kc8nJFQbDn/WHzzc+7o5E6pLqBLDUMbPLbX//RprqiABK5F/zpXz8fqgXfa9jC4KYPHzaerfYm7mDD5SbbiH+6OCGl2ublfWTIID9jNUnFCmuw3fKS7zeO73Fw3LA66XJjaQNk802yPRpdnFDdQMrmHMMOxBTUVbCuI+Wj5CCKZLI66TJHIktHmcGBAc8oekqI0yhqDExPj/70z7/FMpJbo5GK+Yxt3v8Dfy4HAkVK1eW0662pvvcVxma5KCk4XiO9Rw8bqa+UJUsHLy+bXM1vKiGe8KeyGEqCW0h5Stsz+8L/G6o1/h88/I+1M199rzP0eXnQTvbvi4t3VDcQr2CoM2b8zoP/XOuFdoy8Hy2qu6KqdMwQ7JIqAieiFFGjv2wrEv1bDkKdVmGgPoW+ppCKCsiv3SRCiMfIQiAJFmQpbtOnH8sBOb0Ojlh4AsP0KSoLjEm4jtPiOk4iar6iTCJJ35DuogYLui8+3/3zbx2KPcQH+gRqty6BMY5eJf/4dJEIf30tFeyaqijqfPjLL295uRCg82JDcDQpjhEfvGLjnYTeYxRlk4MINbrosmL+wMvFg1O0iOPmRXiseKEDJJ9R31PdQIrwEdn98Nd/9CgXBtLKRAlxQHVRqf0dyBJZWHCQwvsOrjC/5Qrzbt1nsmnkK8kRNtjm5eLCisJ1mRd1TGsXNkA8pVavWTV2xYKhV85leNBrEpwxbTQaL+q0mUenxUM7iIfUaiGDY/Nff38+UqMO1Q1kGRmyP9n/9S8vu6IGLGSAsHp0hRDPEVcWLjhIJ2MhxKFa9HTKHH2nwouqU9+FC5D8KvN7qq68IjhalAtBtlp+vjwUi/aFEn5gNWnsVHl1fuEChNVD7zuaiDV09oyN4DbVhWAJn5t3gSCpLuXCZxYHnWYoIU6ouvCRJXur6iXbBN1Pcb/SqbngqAmTW5tqqUhkYcBx3rk6DUv1j1Uu1SZUmE6dy6u7ebV9UgEyagwn7aX1+/TpYltGckuN1JbgiJ3xeEJZDlJ2P/z08gW10pDIQpDfi3RI1Ro62Wb2SUSNKTudIiDeUqSNtbVe0WNVfT1mNLrYFVep72MkHCUHiURqTz4AJ1Q3EFtqnVqxKsaivHTqnHw+CXnLfj5WLarPkTCUGCQSqTV6WS9yzQOHeFHVBm8W2WlcSV93yiD3lRAdTu96vCwFPW6kYy3abfFyHfFLSUEikdqinajIly7QuVqeWrFqHNCnFtUNJBj0v0+hN7epqIixQDngpVeiKPzkJ5FawnFuk+II2UCcoHM7VTrHJFmflDws4ScVanfLfj7ZdZXnTX3owxfsWC+0IbkQeEi1iRThnJRiS9QA3Sec40hx6iPCku0xQs+qRcgmCSG6wl/aNfym0fix6EHDXdQmQEg7YsEy7MuJ6FibGTQRFZKlF+XcVPiR/naq7q8pmV0+XfQY6ye8LAx9T+n7DlXvSKQytKE+fx49Helnrj2nHcwq34eaVUwo6dg2C4yHDxudUKdSISlydD8Jx9b7v/30skPVK9i3fHRg5BfEmrzcQLxCp/rMKLGogOxu2wABP4XXTAJJlZOADzymXEFSLXypPHRgsLTuqcAnOOThwU83JslTxEP6tk0ZDAasz1XuVsiNadnk105SUTBIsM0pE+OPVL3BZ5YDDqT3Fy2qG0hQmElKS6/oVyw87p1mcI60OHjoUS4d+eSZYscfeOlMFPmdHCUSlNyBgs+sY3zEiTYog6JPpkq60JftM5gZE7HkeFlJlBx8+K+X31PzgkSCkM0I5ZzgfAWbtbds1ppUg1Byv14/ethoLeIG3BUfQRJF/laRIAGiO1nVlwnQoXao2TbfUB4hG0gw6MPS7TNs0P5DkLyj6sqQieV7HxMLY+GX/KsytRNVAh3aIUBS4RG9auSnbrsiLOfI0u4zbCh6BBxFflYRiXjju3/9fFSCE82EmeNbHzPHNTo42DyeqMCrIQPRXtTrGaFg/6o37U+oWoM9T5koC59o8TnFyZ3oWIU/yZkLs6+XPl3DIL2jX9tUg6D3TI21tVZZp26LhParPz5dDITjfsTHfVqFnUl3guAIPsOa4jNA2HN0KPaQENTuhsI6UjBlf40/7IoCMEbu1C046Ewfh4uFB1g5Yvp1QtU39+bY1hdMVAPh+KQiAYK53XF+cwnB8RFZR4yhMz4DJERqVYtjWz12f/zf0RM5Gm2T422wb9zmz6nQrMn0tz+/7FOrDQVXkWcESY/SCYlYow0cKjhQqE+RCPYzfP4BpTGS9/oIEGasJsUx4gX0OqNooVsqKuS7N39/KkajXTH/UYIhe6Mue6NXddkbMWGdKrer7K8IkBalE4ydPSFOq1CkT5FcOxEGSTDIAVVjJCdBvD8RBSFAusLPM9UfcbSEC5cd6pWBLWPhejcDgfLowdp+1aue8yqiil1Zl4gVOE+HYg/xxTly6+yfQa0yQH6n2ECKUHk6pW+H8fSglv4NwuTXv/7jFfVK0FkLJ1p6XKwpcm8ePmUOjtOkOEZ88QonSqY5UVUBop3q3wW+2hQdzigqTae0M5EC7ymcWviE2bjKnynA/7rCbWV/NjkBm8J4mpE7zjuqG0ghaPRMRo3dWWfUVQUI7cbK7fTqYxTJlo+rt0XAiZo4cujn3nvMyvuus7IrWd8cJugifsF7zcBx3imXHPY2RmfTtJfQ3gFVY+iMsyGucWkX7lwJy0JPYJ7SKVOG2LuDvdvUS4MgoYt2sA90voFVInMpel/MNcywxvfHuDgqnSk9QKLIvE8hCJZOmaLKTbsYn5S+PqFqDH5xin4/UrWG985Gz0weUivSj0Y8K6WaBEMkysJRNXSmjSESUQCbdpmZ9pmZOlQrgdm0jHTKlFLSLpvxGYesBfewZ+6bGIRjiibiinVwaFwMQWfKDJBzjL4lKmDzTfY4waEqL50yZcgY6C+ReBUq3WR8Yvp9QtUKxgrV7Jn5JldlxnAKDg1tJ8rMUW+gM6UFSBSVn1pl6VR5D2u5o+SAVW0fp+zxyivaBi7HveiCe9gz8004y4lyn6Wcg0ND20aOOg6dKS1ASCecz9ZdKOlrhLzCeAT5UU6yGkVhBbrs4BupsIT3TQclmhTHiBN8sJNC15g66ji02abNRBTAtF3XGckW9ImF61XwCVD4jKKHCD5vS1xNfo+RoEgC22fahU2sbztBhx18IxWW8L7poMQ7lNimag0f2kaZRBSA9hPaP6BqjI92TW9pCB0g+eHIIdUmUggU7VPc3MYzjp4IJf+mLB3OgWEko9avP/3ymnoh8I0UfZ9QNUb6DBAUiJXj3oMP7KNILAqCDomqIEBoN1YGfQ8VIDrHzo9tW7zcQJxBwT7F1MCYJJ8YOlTXkWBIjlwp9k10ugvGKME+B1SNod0dlzZ532247tFjI/iUqi0fuWC25WMpdTRCGyMkogC0G6s5AUI7fdqJhWf0bM4G18exrdPDWHlwttRVcK4jIXE+FmaMEnQ8oGoM9tixtYeG931NvrS/p2oNH9ZGiUR4wNEIhdun3ViVHCCbb7wd23IwUvx2l9wHEuF235MNQ2xpfSzMGCXK3jd2GLNUWML7vobVo8XqcUjVFq/XBRyN0MYIiSgA7caqpADRM7avb0tBJ+9f+qBtIUjRlGW+b42SAwI7Md2foJfW6YCqMdJbgDhuzumg1+sC6OFihDZGSEQBaDdWJQQI7Ryoq1RmA3FG68JR6q5LqmJKlvox0yOPkWDQl1RcjWEqZoDtEmXvGzvzPncavO8Lmyz1jl/Y5XX10DgaoY0RElEA2o1VwADJPl/Jo6r2GUVA90RdBfU6Eg4pu9+srbXvCvpcjwOqxmCrHRdb8b4vuDSsCXFPkosudKaNERJRANqNVYAA0Xm9p7ttK31KMUsLP13otp8jIRli56n7E8YoUfa+scOYpcIS3vcFGk6VQ77JacT3d0W7K+iSKHsjtDFCIgpAu7HyGCDaobzeHqLKvXv2LvKA7yoHf7GC/kbsTx48iN5eBwpjlKiSfIP3fYFcU1FYwWz2ltmsSdUrZRphHNqNlacACXx7iPMxqU9ye3VF4P0J3HyRBIG5q0ryDd53Rd7RE6pWEN1eN+fXoE+iSjLCOLQbqzl2oJ0+7cTiDvRnCE+3h8wDXbzexuFKfvqZiND7E42SA9s9HHZqM2aJsIT3XcGgJgzoAVUruDD4bYjBcdGHzjgZYRzajdWcANFwKEFzX6PTDq4fHFJtImXi7TaOIuh0kv1JIvx+qYcXWH2cMh2JZDAD9JgBnlI1hjef4ZDbVL2DoyZqQQJEOwZXoPcUs7moEBRKxZUNUlEheqIgDepijye8rAXYpo9dYmEJ77viu//++b3tsgWvcZRdEQAcNVELECAl/minOeTqs45Jy4I9bZOigzxGqmbImH1LaUU2yBo6oyisiKIw+w8Njpqg0AFVY+hMaQFCWzsUB6r4sa0mO7plBd8S/tKT7JgUe7SpVwo2TbBTi+o6UhkEiKSwInvD5hu3C4SRh6+Xv4vcqAdUjaEzpQWIR776gjmdnrCPSYSv6wxKDljdgjzdZ4Pu18XlZYdJ4CkvKwH/2ME/UmEB73F3CoyevT8E6JSoJQ4QdD2jaKFvKqag9RDsaZSnPJ72gjzdZ0ver44K//zJLaLIPuPBbnoFyZ4FOKJqw0cCZIMyCBhSO8cBVWPozCIEiNXPH5D6Nik6yGOkMKRynYcP1trXK1ZVcCjUYjVJRLlp1yt8tkVpDGOFsm7O2GeQYxEIR53a6JSIAtBurAIFCM7p/GtSnh2q8u/a1ZSdduEfffwjFhbwHozv4owMtsu5silOOtU3QLzcWJgfJ7eUpV3uAp1OKfaL6lWU3OZd4WmVnAUrCN02J/vPKJgoS6PzxsLOOIuqdKLdWPkLEKt0yhQ983rdyNfgthXfwX8XtgdLjF/mFImyVIw3FnbGWVSlE+3GykOA6BXWNZ0yRZ8+qtFFR/nZyA+x39S7Z8tk02+fbsG47JP5dKgagU0yp0hUBc44i6p0ot1YFQsQL+mUDbnOXeEjRVFXd89WfduK5z3XDQTIWwKkSdUIiWgDJ6oCZ5xFVTrRbqwcA0S3zwzcqWoGzk8jO1QLOxV9SQX9wZ6pqIg87eopz6uJzT4k+484RaIqcMZZVKUT7cbKMkBoN/hjr6bkTtVSXGPhZeFAYcqt/LYVxiShPwdUffGMIOlRzoWxRYGr5eyQqjG8sbAzzsLFKD50ot1YmQfIOdIyNXaZeN7ID2XF+5NN9iaj0UWP6mOkKMb3ENJva6fI4I2FnXEW6JSoGgeIbguHqSydMoX+pMpXilLx/iRfHXV/fuBlEYYEyLeUc5GINmJMoydUbTCOQhe4gtyh2EOMoTOlBQh9p7n6Q39S5StAcuh4Kq5snYqS8RUk9GHHRH/+n8ga/cPyK+V5Y58GYhEIl4FFpzY6JaIAtBurVYCYUeH+hAm0K4qlj0YT/M0g0+CQYh0xg+W2yO9PzwN9usLSAHIVILegP6kKFSA5GKKSx34L9m346GHj+3k607crXBoL6STok6ga70FC9t0n9CdVluPqSOmP/erMp0i6xX5q7t29Eslgxu5Q7CHG8OYdHDIVAWBgEzp+QNUGo2VzFrQbq3sYIHSmreztfRtV7tcS5adbqbDJfnLoc4qeO1TvRCIZ+UWmI6rGRNH8CHSFgG1SHCPG0Jk+HY5FAXCoWN3DANH90UfDvu6uxTipjBr7Nvc9uUIfY2UwZtOYd28W/bhCG4dz8/dUjbG9bG9DPjO8o2qOKr4vMjW2diiK2kN/UmUYIBQZvCcWXPdQjqnLOPhIKc+fMKF2heWeNWdm1nFjFA2NDITdhRjj82QXHPTRHdphFUmFI9o51D0PkGvyrKJDdR0pwpAPf1ZkXOah9yOcxA6Eg65s1r+9K4DR+ws4ZFdYRiEfUMghZ4E+HYo9xBj0OW00Gs9cjx5xqFitAuQG7XhshFvKw/4kisKl5Br8pUlxjFjBKrdPJtSheouvjOLYwMwlqgguaV/OEHmBXj1KK3CoWK0C5BZ6LHx811UUhQ0S0/5+hbo7NZfIVxAkQ4p1xBSj82RX0KcrLFe1MXro9sJGNwwcq1WA3Anj0aToCjsfmcT4ZkFbcv2OESvo/NRMiL9/DQ10haVDzlqiiqKXeHLLU6qPEResnr/GoWK1CpCZ6DH59PmyW+C0a8jE9b3NxGUDPjwQ9v7yGhvsigluGYUPb1IcI+bMWKJ8sHl1opWKArOWNDx2xKFitQoQI3Jf6QqHcaGxNjN2IgKQHy4cUbWCoL21WUfP29DxgbCMwJCriCYPkndUC0GHZ94WgUPFahUgxhQYl2AnoHqFI+v4naoVUXR7fzTVKC7Ph0DQZVOTD0YqHGasCe68LQKHitUqQKxgQu1Q7CG2BNuL4MM9fPgpVRtupVlTjZJH4EDYO+IrGmhRBkPrxrFjTxkM+jzo/K20C4eK1SpArNBjgr/8TtWWYP7imGbdWtXuNAqGTZTD2TcfuENumYrAMGs1KbrCPohvQXp4c7WXfsdqFSDW0M6psrzyToN9fCUWAXAN2slbT9BxOnkDA2HvgMFTrWu0jqwmLQamxUtbPSfJ0i6lRud83gmvZ1LUocoCxy0rQBJlP6HemrF9gk6nyjZoJ/bSM41CAy6d1h96yszwI9VS0BexuKCYCMvj6akoORBSbYk5MLB0s/4whqmqb4AUbncWZBldYe8TX+1DZiqnZ2jHVYRPlt0PP718Qa009CY+5JeOjYMRJUXtwXFTZWCPov2hnUTVLEBcdEKZr9I+Xs+G0wDSDnVI1Z4KgkTDzNGk6CCPkSCEHFif4CSpur8BEiuDdHmScZ1uKrOgoVNlmcvdUFGQaPLgToTLCjiHcSPWGcYuZeyeUJ1J0f7QTqwKOqNv8tT7PVUrvhn73X8j5Vw7fwNB8ujB2n4ZG/dJdJqYb+QPeOmNkAPrE8YuVfc0QDRkE4rCChTaIc1KBVA3g4a6wn7DcwMNnXLNgSuVX47QykTPJr6eltOMzzJ1BsdN1SpArEAh+wDRM7Hzhv0LwyiS+5OX88tED6Rgf4LVfqAswhDjVfptg7PIxuvz5aFQalcYUNRRtV2x6QlVK4q2Ow+XAIFn6NWjFFbK0ViHYg8pSo9rJS+qdKz8SmuH6jpShOz6ybTbVqpABwYppf7N9hYvNxAjcAhJ4cwyBQgKtVlBEgHUzdFpisum5w4qd6zcmVrKx/5EyUGZ3+Yxjew329WoQ3UDsaKoozoGyDntbomAlBogGgyR0uITql5Agcp/fVUHvq/9ie4Pey3SyPL2WoxJrJQ8MrnAeRc4Kqq7k+lgGSA02McRYxGQKgIkocUDql5BkQSl2lQrg77Fgn2FKr4/oUPhv5Zz8012YfQQfWNRkFWAfAG92uiVCKBuh4shjKlBmqLxuT/BwN438nrF+/fl5YEw3ICbsAqQL4zfj4WOdrgYwhpm36qum1yj9yec2iXCz6GEl/2W1ok9055itRWeWcYA2XyTPT/0jqoV6LWDXqkA6va4RKUDXpyqKHq29vFtHhkFVsjNf/5tb3QVGBuId5YxQFx00qDXDnqlAqjbU1KAZKBg6ZveaeTG7goP93fZ9Ck7mRqppMgG3IQlDZBEOeyXxy8Co6Mdepkn9fidaqmQF9481MTLyvB6fxep5F0beQY3Fgyu8rABN2EZA4SJvCsc7v4Yt8VNxRQXQ3jE6it8QpFPEh2qz5GiDBmEm428Tum41nTI35uIDz4i68hMxp3CBRe/oMGgAYJO75QQ21Rt+OraDDraQaPWhvANSp9S7GPcVFTI5pvsmFUfCz/hZVGGrCg9XydT2KhPkfCZ26x4h9RnglNICmdc/IIGgwYIK4iisIJM5S0nWE2qGehoR55izDV4KZCiVH3apWEgmhQd5DFSKQxon0JfU0oFmDrusgWInrwcT7Da6JSIHF7bgSESRW5MtS4M6USHTrWpV0pumxbVdaRUpBBnFC3skIox0ClGpxOqM1m2AGHS6lDsIVag0w46pSKH13bQcFfY594fkXUkHByhctKzz0D3eFUZnvcnJnyMItm66w5pU8fFbta+MI5pO+PQYB9njEUAvvvvn9/jD1vCkkk7fPXCBAyRKsucm0ba6mrf0EEeI8GgLeMj1JBgp1iQ6ihLW9lAX+f+VrvWQxk47qRj2GLazjg0GCRANl3Tq4n9hwYd7cAQqbIcdGa4F9czHO9PFKkA1XUkHDXZn+S3rSTC48TAoPUbjcbutOPhSbB3rAwcd5kCxHWfTIDsEyAdqjegox0YIlWWAUIjOxgiFTklpiFD2u7Qdpt6ZeRBckS1KOdSiF36kwpDGK9YGTjuMgWIa3o1foHwGnS0A0OkyjJA7jI+nxWLwGlIhpIDDFb6/mSTpZ5j4ENV/GLfR2a3ZHJ2M0HbmPZPqM4E20wdI1NM2xmHBr0HiOtkhC5n6LJN9Sv4ux0YIlWWDj3P+HmnEuExDZkGSpSyP8lWSIvHXefw6tHDRuKaKjJesTJw3HljNA/TdsahQe8B4rp6RNGXbcA46GgHhkiVRYDQgJERtFN9unq6r8XLdSQcAfcn2EffHtKiuoE4o+1mus+YBfrE6HNCdSbLECD5RHtE1RomoW+n+QM62oEhUhUgQK7Jb7VIxILtTzj+bpLKHbrMXhNY7zNmwXjFysBxlyFAXFcPeE3/d8UU0NEODJEqiwABpy8opp1YLMD+JNdTrxqxKIbzPmMWWj90O6E6E/pv7QvjmLYzDg16CxDaTxTjQNWaaZvza9DRDhRJlaXTFjF+vmwmomb7k2yl8/dU32uW+Na0Jb4ojFesDBy3yBhpTNsZhwa9BMgmhyEu1z1y7lw9NOhoB2fMPc6Yn1I1BgWs2xlnbH9ywMuwsD+56xZ0TabL58sDpVSLl4XAKH2CkqvgZkHpAo6bKAO7FR0j2olVRQFC2++U/V27Geiwgw6puAP+3Q6USVDmgKoxzI5TN0C26Fnb17ePzGGIYTpskl9fB0oWGFePu7Z4uYEU4Rxp4ZQ9yqCYjhe6SApnaCdWFQQI7SbKoH93MHP10KCjHawgLRz0kKoxNLKDIVLhCYwSK09P9xmgg2WgHGeoCT7yWfrZj46PCcMEbJWg+wHVmeAoqOYO7cSq5ADJ0+8jqi58ZO+xfT0B3gU62uFkiCmX8H2QB2siQh8LewAbvG2srbXmDYhvGK9UGewZFy1ACgaHbrtN24mYA//PDp3mcAz7nqoxNGKkjAs69SnpthUn6PsZRYv+p6JkbMZqkQJks9imXHNO2r9tsoqjoz2c+SsKY2jkFEP8SDUY2mjK39N9PghybGsD43RM0UTmsigBQp90f46QDcQJ2t2h3VQYwP+1B2OcKstvHyRivWzU55EvvR2q60hVvKa/rTL6exd5+nlI1YhFCJD8q486VIvwir62KI1AR3uI4g7FHmLDMxTrUQYnT7sSYa9jITDmGUWLQU9FRWR9d7gPjLFBfXdCB8h3//r5yLZPk9De1BsSZ8F77CFAmhTHiA2vGIQWZWnkaVdXWa52DlSeTmmycXG83YWxcfKFa0IFiN5HXVxcHKvip4hGp1aToKM92Sxl/91YQwbhW8rSydONRIRJuypPp3InOsKJYuEIY+PkC9eECBA+80AJkQgP0NYObaXCEt7nBspb70PgGQPRoyydPKg7VJ8jhcFwZxSVp1P5xctEFIRxoUvu5JPQIVVjaLCP/WIxQb7yH9GvbV4WJoqm38puAjq6wXLeodhDjCENeUsa0qRaGQR2LNjoYfwfKF1Y+HRqEpxgqqPagF0TbHpA1RwlBx/+6+X31DL0Sujx/rYMWfASA+93Q0e5y1k0eeD3tnlgCPRplxqpljIPlNKvgk9DO1HRdGoSAr7wxOUUIKBXLt0n34GRM/dWknkw5u4wiw2E/e0ehZX2SR7ouxgiVreD5RxJo0imrku0L3ymU5PQP+cU5BrXACE6uwECQ+PFzyTijKtR6rKKLApMRN7SqSl85JBhq+iq6OoLIcCpC6VV4/BZ7mRLo+GtDBP0iO5nlCtmoO3rO52ahPRqn/SqQ7UQdQmQKCq+Go5TKEA0GCZVbrd3VHaiVXdCplMTeElDNJxi9VT4xxBmofeITVaOVHiEzywGARIzkCdU7VBy8OjR2o9Fl/ZlI3A6dUMU+Z1p8YNUuU2UhcGJzxqNRjNE2s5nF8fZOGzQPvz08gW1e08Z6ZRG4kwyauz6fooRH3iH7ttUS4X+eNtvTIPPL44+Mh053psfRX5nskWjxHQq6PUbVj66UCpev/3lLmjDD8wgp1joB6q2DKOoseN7RlsEst8fVKMO1Q0kJK84qUpCpbM6yP+wv/XIFb3XKO16FG35gQCJCZATqvao+7Uf0bYSQhyqwCkJg+vly+fmwerRpDhGgsIKWPpTmdjQHxiqKxzvdUKRU2aFnWUOEr3P4Fj8kGoTCQa2PKNohU4/rmHcOxR7SChe06duWf0Zh3b9kS+1A+F41yzKLGWQaLuUtc+IZvyYTihYEd/Rt22qvnnNReWkzBVjEnzSL5yHt5TlXZ3joNApacGzKo3ik7L2Gdht7o/phEAHP5Pi71R9cS6vfvK7W3ZfpoFd/UOQ9AiSp1RdWfiNO7NqrJQ8Cn09gwEsZZ9xF0VOMMchKN4KpTpVpFGzwL7+yWcV7dyPEVcIErlfdrpQFB0YQnj5rt55nDN4u1U7FP09KdJXHRhlb7xtwMZhyO+SfUe1KD2OKF/UYbmdBY4Si3ICIzvmJDASUTH5ocN7qi4EvS7jC2wdDl/Lrz4GJlXZ/1DDe7cyJwnzLMM0Kn+8d5wCp1ccJjTiRUihgwaIpoARb4GyKfn2izosx2UGBv3uUySsGqmoEYzt7xQbiBXS8fnwKkDX8GDIrnC8PjIVKbuRXHtVxQxUZmAAM235x7YmkFImipSSqhWkVV5ury+LUgJE4z1IAOVTFUWdD3/55S0vg/Ldm78/laNRS4XfY2TQt0qObU3IJomLbH+5gRhDn6y/l6pq0Lk8QgRJzpCpqafl0X9GfV9OlQWFUrEaceVbqi1RAgxIpce2JjCOxxRNxAr6tjCp1TXoXC6uS7MNdCoViJTRQEVq8NufX/Z5PZM//a+fn8iR3FJqtCVYJRQiyuUcadXxIGIcxk/b5oSqFaRWb0mtmlQXComUjrfTLQfo8CnFENlQYW6PsKU2x7bzyK9vvae6gVjxzYJ+DwFjUw35TNQVxS4mLjq1OradhQ6OT58uTpTbpOLt0d6yqSxANJnRP192C96WsnBg9D5F7Y5tZ1Hky6MXdfXQSKRy8pSrQ3UdWWZqe2w7C1b7hJXjgKo1OFibiSARCwr61wN9dFjSD3RWRdCn+kJRZOWAc1KrLbHA1CZArmG2igWbVuX2+G7twMC1P7a9i4LBofu+w+qRigWGPtSTPO1KxOJu4s+R2h/bTiPbG37KfpMjFu68ou8tyoVGIrUmX1F0DvyEcmHg3F8/9NNetJQquwv78vK4yIVRnOrs4cNGvGh9nwZ9WQyygRtdtKg2kXWk9mDcUxk1XlRxz5gLTEYHislIFIODiMW4U9cExnDx+O7qWzSupfbBUvfVRE8+vn6whlM6JoTFOqWbxUIGyDjMerHQubKU20qpWNQ3YIaRjFq//vTLa+q1QJ8c+rwzWS74ke406NNyoWdDIS6ZEdUWM+IWHdQlf6tJ4Cg5IL/fZwPb41Ul+A6MnNf0aVcsGfjP/UIHEOnEBtW7uVqNtsRVCvcY8Q6GT6WMumWuKLrvI3W55zkwNEsZHBqJrJhBNtteZL+5/hwJwZA9SlfKtdchNrb6yPbzp4vnSohdZJs/+WZpg0OzChBDdKBcXGS/uf6El2Eg/ZKR6Ank4X+snblu6vVKwSr5lGpThQmKa5Y6ODSrALHkTwW/GM8GBucUBx/oknQse7ZFTCAv1Tb/Z0NJuSVJC6nHohyWPjg0EllhiZ6huSbTo/oYuXeQEu7/tkDPlRdhFSCO6Nz+Ht6qrx/uanKUm4p7Av1dUYT8njE9m64jSwuO0n/4sNF03RctKvR7RVGWfDVZiG9ADMUqQDyS3wLTQZZib0Jg1Pp7c8tgFSABWIK0qxZfjF0HsMOKEGRp16eLlhKixctFCZTzKJLJMt1sWJRVgJRAvqIkoqapF07Ql5HsrgLjNthmRVnoO48VqYvgqBSpelX5iHS/aTQ693mPMY9VgFREvqG/lrKC5RzpISlXwXW5Yg4SWVEx+sq8UpexECLmqHib8jFSGAb3TAlxyr4iXYvW0tVKYQ82XFFH8nRsgwHSASPG65PwbwP+bSCuSGXUGIa4M/g+gl1XrFhxF/8fN7PpBBRH1F8AAAAASUVORK5CYII=;" vertex="1" parent="1">
          <mxGeometry x="287" y="276" width="57" height="57" as="geometry" />
        </mxCell>
        <mxCell id="oanOTafGp6MQvB_tRIH2-15" value="&lt;div style=&quot;text-align: start; font-family: Menlo, Monaco, &amp;quot;Courier New&amp;quot;, monospace; line-height: 18px; white-space: pre;&quot;&gt;&lt;span style=&quot;color: rgb(0, 0, 0);&quot;&gt;split_string_by_multi_markers&lt;/span&gt;&lt;/div&gt;" style="rounded=1;whiteSpace=wrap;html=1;" vertex="1" parent="1">
          <mxGeometry x="204" y="373" width="223" height="60" as="geometry" />
        </mxCell>
        <mxCell id="oanOTafGp6MQvB_tRIH2-16" value="&lt;div style=&quot;text-align: start; font-family: Menlo, Monaco, &amp;quot;Courier New&amp;quot;, monospace; line-height: 18px; white-space: pre;&quot;&gt;&lt;div style=&quot;line-height: 18px;&quot;&gt;&lt;span style=&quot;color: rgb(0, 0, 0);&quot;&gt;_handle_single_entity_extraction&lt;/span&gt;&lt;/div&gt;&lt;/div&gt;" style="rounded=1;whiteSpace=wrap;html=1;" vertex="1" parent="1">
          <mxGeometry x="77" y="479" width="235" height="26" as="geometry" />
        </mxCell>
        <mxCell id="oanOTafGp6MQvB_tRIH2-17" value="&lt;div style=&quot;text-align: start; font-family: Menlo, Monaco, &amp;quot;Courier New&amp;quot;, monospace; line-height: 18px; white-space: pre;&quot;&gt;&lt;div style=&quot;line-height: 18px;&quot;&gt;&lt;span style=&quot;color: rgb(0, 0, 0);&quot;&gt;_handle_single_relationship_extraction&lt;/span&gt;&lt;/div&gt;&lt;/div&gt;" style="rounded=1;whiteSpace=wrap;html=1;" vertex="1" parent="1">
          <mxGeometry x="340" y="479" width="235" height="26" as="geometry" />
        </mxCell>
        <mxCell id="oanOTafGp6MQvB_tRIH2-18" value="&lt;div style=&quot;text-align: start; font-family: Menlo, Monaco, &amp;quot;Courier New&amp;quot;, monospace; line-height: 18px; white-space: pre;&quot;&gt;&lt;div style=&quot;line-height: 18px;&quot;&gt;&lt;div style=&quot;color: rgb(204, 204, 204); background-color: rgb(31, 31, 31); line-height: 18px;&quot;&gt;&lt;span style=&quot;color: rgb(220, 220, 170);&quot;&gt;_merge_nodes_then_upsert&lt;/span&gt;&lt;/div&gt;&lt;/div&gt;&lt;/div&gt;" style="rounded=1;whiteSpace=wrap;html=1;" vertex="1" parent="1">
          <mxGeometry x="77" y="623" width="235" height="26" as="geometry" />
        </mxCell>
        <mxCell id="oanOTafGp6MQvB_tRIH2-19" value="&lt;div style=&quot;text-align: start; font-family: Menlo, Monaco, &amp;quot;Courier New&amp;quot;, monospace; line-height: 18px; white-space: pre;&quot;&gt;&lt;div style=&quot;line-height: 18px;&quot;&gt;&lt;div style=&quot;color: rgb(204, 204, 204); background-color: rgb(31, 31, 31); line-height: 18px;&quot;&gt;&lt;span style=&quot;color: rgb(220, 220, 170);&quot;&gt;_merge_edges_then_upsert&lt;/span&gt;&lt;/div&gt;&lt;/div&gt;&lt;/div&gt;" style="rounded=1;whiteSpace=wrap;html=1;" vertex="1" parent="1">
          <mxGeometry x="340" y="623" width="235" height="26" as="geometry" />
        </mxCell>
        <mxCell id="oanOTafGp6MQvB_tRIH2-20" style="edgeStyle=orthogonalEdgeStyle;rounded=0;orthogonalLoop=1;jettySize=auto;html=1;exitX=0;exitY=0.5;exitDx=0;exitDy=0;entryX=1;entryY=0.5;entryDx=0;entryDy=0;entryPerimeter=0;" edge="1" parent="1" source="oanOTafGp6MQvB_tRIH2-21" target="oanOTafGp6MQvB_tRIH2-8">
          <mxGeometry relative="1" as="geometry" />
        </mxCell>
        <mxCell id="oanOTafGp6MQvB_tRIH2-24" style="edgeStyle=orthogonalEdgeStyle;rounded=0;orthogonalLoop=1;jettySize=auto;html=1;exitX=1;exitY=0.5;exitDx=0;exitDy=0;entryX=0;entryY=0.5;entryDx=0;entryDy=0;entryPerimeter=0;" edge="1" parent="1" source="oanOTafGp6MQvB_tRIH2-22" target="oanOTafGp6MQvB_tRIH2-7">
          <mxGeometry relative="1" as="geometry" />
        </mxCell>
        <mxCell id="oanOTafGp6MQvB_tRIH2-26" value="&lt;font style=&quot;font-size: 24px;&quot;&gt;知识图谱RAG构建&lt;/font&gt;" style="text;html=1;align=center;verticalAlign=middle;whiteSpace=wrap;rounded=0;" vertex="1" parent="1">
          <mxGeometry x="-33" y="40" width="158" height="30" as="geometry" />
        </mxCell>
        <mxCell id="oanOTafGp6MQvB_tRIH2-28" value="" style="rounded=1;whiteSpace=wrap;html=1;arcSize=7;movable=0;resizable=0;rotatable=0;deletable=0;editable=0;locked=1;connectable=0;" vertex="1" parent="1">
          <mxGeometry x="844" y="24" width="753" height="758" as="geometry" />
        </mxCell>
        <mxCell id="oanOTafGp6MQvB_tRIH2-29" value="用户查询" style="whiteSpace=wrap;align=center;verticalAlign=middle;fontStyle=1;strokeWidth=3;fillColor=#FFFFCC" vertex="1" parent="1">
          <mxGeometry x="1171" y="41" width="90" height="35" as="geometry" />
        </mxCell>
        <mxCell id="oanOTafGp6MQvB_tRIH2-54" style="edgeStyle=orthogonalEdgeStyle;rounded=0;orthogonalLoop=1;jettySize=auto;html=1;exitX=0.5;exitY=1;exitDx=0;exitDy=0;entryX=0.5;entryY=0;entryDx=0;entryDy=0;" edge="1" parent="1" source="oanOTafGp6MQvB_tRIH2-30" target="oanOTafGp6MQvB_tRIH2-53">
          <mxGeometry relative="1" as="geometry" />
        </mxCell>
        <mxCell id="oanOTafGp6MQvB_tRIH2-30" value="低级主题词" style="whiteSpace=wrap;align=center;verticalAlign=middle;fontStyle=1;strokeWidth=3;fillColor=#FFFFCC" vertex="1" parent="1">
          <mxGeometry x="1035" y="245" width="90" height="67" as="geometry" />
        </mxCell>
        <mxCell id="oanOTafGp6MQvB_tRIH2-33" value="更新知识图谱" style="whiteSpace=wrap;align=center;verticalAlign=middle;fontStyle=1;strokeWidth=3;fillColor=#FFFFCC" vertex="1" parent="1">
          <mxGeometry x="1187" y="690" width="90" height="67" as="geometry" />
        </mxCell>
        <mxCell id="oanOTafGp6MQvB_tRIH2-36" value="" style="shape=image;verticalLabelPosition=bottom;labelBackgroundColor=default;verticalAlign=top;aspect=fixed;imageAspect=0;image=data:image/png,iVBORw0KGgoAAAANSUhEUgAAAMgAAADICAYAAACtWK6eAAAli0lEQVR4nO2dQXIbOdaggRRr8f+2Q6qoVsTsrDpBqU7g1AlML6e7+rd8AlH7rlay3HvRJxD9d3tmKfoESp7A0glM7SaiylF0lD2zaImYD6mUTFMUCSCBzCTFL+IFQNkkHh7eAx6QmaQUK5zZOk42Pv2/yx/EpYqFlBtCqW3+LJQQutxAJhli8FNKoaQcSKUGUkYDFanBb39+2efPK2qGRFYYsvkm2RajiycjIWJxJRuINxiMUyFlKoU8ffAgejt4lgz584oKYUxWzEIHhVKXz9VINIVUW6JEGJwU6a01Gm//z/9MBmJF6WD/FZPo1Onzp4vnIyVbZQfFXTBQKelY99effnnNyxUlIZEVOf/jfydb/768PGAvsSvqy1BK2W2srb1arSrhWQUILEhg3IZA+WZtrb0KlHDc6wDRqdSnz5cHSqkWLxcWVpTOwwdr7dWm3j/3NkA2//m3vZEQifB8ElUhw0hGrdUexS8SuVfodOri4uKIaxWxWEIY0FRGjf1f/5Kc8nJFQbDn/WHzzc+7o5E6pLqBLDUMbPLbX//RprqiABK5F/zpXz8fqgXfa9jC4KYPHzaerfYm7mDD5SbbiH+6OCGl2ublfWTIID9jNUnFCmuw3fKS7zeO73Fw3LA66XJjaQNk802yPRpdnFDdQMrmHMMOxBTUVbCuI+Wj5CCKZLI66TJHIktHmcGBAc8oekqI0yhqDExPj/70z7/FMpJbo5GK+Yxt3v8Dfy4HAkVK1eW0662pvvcVxma5KCk4XiO9Rw8bqa+UJUsHLy+bXM1vKiGe8KeyGEqCW0h5Stsz+8L/G6o1/h88/I+1M199rzP0eXnQTvbvi4t3VDcQr2CoM2b8zoP/XOuFdoy8Hy2qu6KqdMwQ7JIqAieiFFGjv2wrEv1bDkKdVmGgPoW+ppCKCsiv3SRCiMfIQiAJFmQpbtOnH8sBOb0Ojlh4AsP0KSoLjEm4jtPiOk4iar6iTCJJ35DuogYLui8+3/3zbx2KPcQH+gRqty6BMY5eJf/4dJEIf30tFeyaqijqfPjLL295uRCg82JDcDQpjhEfvGLjnYTeYxRlk4MINbrosmL+wMvFg1O0iOPmRXiseKEDJJ9R31PdQIrwEdn98Nd/9CgXBtLKRAlxQHVRqf0dyBJZWHCQwvsOrjC/5Qrzbt1nsmnkK8kRNtjm5eLCisJ1mRd1TGsXNkA8pVavWTV2xYKhV85leNBrEpwxbTQaL+q0mUenxUM7iIfUaiGDY/Nff38+UqMO1Q1kGRmyP9n/9S8vu6IGLGSAsHp0hRDPEVcWLjhIJ2MhxKFa9HTKHH2nwouqU9+FC5D8KvN7qq68IjhalAtBtlp+vjwUi/aFEn5gNWnsVHl1fuEChNVD7zuaiDV09oyN4DbVhWAJn5t3gSCpLuXCZxYHnWYoIU6ouvCRJXur6iXbBN1Pcb/SqbngqAmTW5tqqUhkYcBx3rk6DUv1j1Uu1SZUmE6dy6u7ebV9UgEyagwn7aX1+/TpYltGckuN1JbgiJ3xeEJZDlJ2P/z08gW10pDIQpDfi3RI1Ro62Wb2SUSNKTudIiDeUqSNtbVe0WNVfT1mNLrYFVep72MkHCUHiURqTz4AJ1Q3EFtqnVqxKsaivHTqnHw+CXnLfj5WLarPkTCUGCQSqTV6WS9yzQOHeFHVBm8W2WlcSV93yiD3lRAdTu96vCwFPW6kYy3abfFyHfFLSUEikdqinajIly7QuVqeWrFqHNCnFtUNJBj0v0+hN7epqIixQDngpVeiKPzkJ5FawnFuk+II2UCcoHM7VTrHJFmflDws4ScVanfLfj7ZdZXnTX3owxfsWC+0IbkQeEi1iRThnJRiS9QA3Sec40hx6iPCku0xQs+qRcgmCSG6wl/aNfym0fix6EHDXdQmQEg7YsEy7MuJ6FibGTQRFZKlF+XcVPiR/naq7q8pmV0+XfQY6ye8LAx9T+n7DlXvSKQytKE+fx49Helnrj2nHcwq34eaVUwo6dg2C4yHDxudUKdSISlydD8Jx9b7v/30skPVK9i3fHRg5BfEmrzcQLxCp/rMKLGogOxu2wABP4XXTAJJlZOADzymXEFSLXypPHRgsLTuqcAnOOThwU83JslTxEP6tk0ZDAasz1XuVsiNadnk105SUTBIsM0pE+OPVL3BZ5YDDqT3Fy2qG0hQmElKS6/oVyw87p1mcI60OHjoUS4d+eSZYscfeOlMFPmdHCUSlNyBgs+sY3zEiTYog6JPpkq60JftM5gZE7HkeFlJlBx8+K+X31PzgkSCkM0I5ZzgfAWbtbds1ppUg1Byv14/ethoLeIG3BUfQRJF/laRIAGiO1nVlwnQoXao2TbfUB4hG0gw6MPS7TNs0P5DkLyj6sqQieV7HxMLY+GX/KsytRNVAh3aIUBS4RG9auSnbrsiLOfI0u4zbCh6BBxFflYRiXjju3/9fFSCE82EmeNbHzPHNTo42DyeqMCrIQPRXtTrGaFg/6o37U+oWoM9T5koC59o8TnFyZ3oWIU/yZkLs6+XPl3DIL2jX9tUg6D3TI21tVZZp26LhParPz5dDITjfsTHfVqFnUl3guAIPsOa4jNA2HN0KPaQENTuhsI6UjBlf40/7IoCMEbu1C046Ewfh4uFB1g5Yvp1QtU39+bY1hdMVAPh+KQiAYK53XF+cwnB8RFZR4yhMz4DJERqVYtjWz12f/zf0RM5Gm2T422wb9zmz6nQrMn0tz+/7FOrDQVXkWcESY/SCYlYow0cKjhQqE+RCPYzfP4BpTGS9/oIEGasJsUx4gX0OqNooVsqKuS7N39/KkajXTH/UYIhe6Mue6NXddkbMWGdKrer7K8IkBalE4ydPSFOq1CkT5FcOxEGSTDIAVVjJCdBvD8RBSFAusLPM9UfcbSEC5cd6pWBLWPhejcDgfLowdp+1aue8yqiil1Zl4gVOE+HYg/xxTly6+yfQa0yQH6n2ECKUHk6pW+H8fSglv4NwuTXv/7jFfVK0FkLJ1p6XKwpcm8ePmUOjtOkOEZ88QonSqY5UVUBop3q3wW+2hQdzigqTae0M5EC7ymcWviE2bjKnynA/7rCbWV/NjkBm8J4mpE7zjuqG0ghaPRMRo3dWWfUVQUI7cbK7fTqYxTJlo+rt0XAiZo4cujn3nvMyvuus7IrWd8cJugifsF7zcBx3imXHPY2RmfTtJfQ3gFVY+iMsyGucWkX7lwJy0JPYJ7SKVOG2LuDvdvUS4MgoYt2sA90voFVInMpel/MNcywxvfHuDgqnSk9QKLIvE8hCJZOmaLKTbsYn5S+PqFqDH5xin4/UrWG985Gz0weUivSj0Y8K6WaBEMkysJRNXSmjSESUQCbdpmZ9pmZOlQrgdm0jHTKlFLSLpvxGYesBfewZ+6bGIRjiibiinVwaFwMQWfKDJBzjL4lKmDzTfY4waEqL50yZcgY6C+ReBUq3WR8Yvp9QtUKxgrV7Jn5JldlxnAKDg1tJ8rMUW+gM6UFSBSVn1pl6VR5D2u5o+SAVW0fp+zxyivaBi7HveiCe9gz8004y4lyn6Wcg0ND20aOOg6dKS1ASCecz9ZdKOlrhLzCeAT5UU6yGkVhBbrs4BupsIT3TQclmhTHiBN8sJNC15g66ji02abNRBTAtF3XGckW9ImF61XwCVD4jKKHCD5vS1xNfo+RoEgC22fahU2sbztBhx18IxWW8L7poMQ7lNimag0f2kaZRBSA9hPaP6BqjI92TW9pCB0g+eHIIdUmUggU7VPc3MYzjp4IJf+mLB3OgWEko9avP/3ymnoh8I0UfZ9QNUb6DBAUiJXj3oMP7KNILAqCDomqIEBoN1YGfQ8VIDrHzo9tW7zcQJxBwT7F1MCYJJ8YOlTXkWBIjlwp9k10ugvGKME+B1SNod0dlzZ532247tFjI/iUqi0fuWC25WMpdTRCGyMkogC0G6s5AUI7fdqJhWf0bM4G18exrdPDWHlwttRVcK4jIXE+FmaMEnQ8oGoM9tixtYeG931NvrS/p2oNH9ZGiUR4wNEIhdun3ViVHCCbb7wd23IwUvx2l9wHEuF235MNQ2xpfSzMGCXK3jd2GLNUWML7vobVo8XqcUjVFq/XBRyN0MYIiSgA7caqpADRM7avb0tBJ+9f+qBtIUjRlGW+b42SAwI7Md2foJfW6YCqMdJbgDhuzumg1+sC6OFihDZGSEQBaDdWJQQI7Ryoq1RmA3FG68JR6q5LqmJKlvox0yOPkWDQl1RcjWEqZoDtEmXvGzvzPncavO8Lmyz1jl/Y5XX10DgaoY0RElEA2o1VwADJPl/Jo6r2GUVA90RdBfU6Eg4pu9+srbXvCvpcjwOqxmCrHRdb8b4vuDSsCXFPkosudKaNERJRANqNVYAA0Xm9p7ttK31KMUsLP13otp8jIRli56n7E8YoUfa+scOYpcIS3vcFGk6VQ77JacT3d0W7K+iSKHsjtDFCIgpAu7HyGCDaobzeHqLKvXv2LvKA7yoHf7GC/kbsTx48iN5eBwpjlKiSfIP3fYFcU1FYwWz2ltmsSdUrZRphHNqNlacACXx7iPMxqU9ye3VF4P0J3HyRBIG5q0ryDd53Rd7RE6pWEN1eN+fXoE+iSjLCOLQbqzl2oJ0+7cTiDvRnCE+3h8wDXbzexuFKfvqZiND7E42SA9s9HHZqM2aJsIT3XcGgJgzoAVUruDD4bYjBcdGHzjgZYRzajdWcANFwKEFzX6PTDq4fHFJtImXi7TaOIuh0kv1JIvx+qYcXWH2cMh2JZDAD9JgBnlI1hjef4ZDbVL2DoyZqQQJEOwZXoPcUs7moEBRKxZUNUlEheqIgDepijye8rAXYpo9dYmEJ77viu//++b3tsgWvcZRdEQAcNVELECAl/minOeTqs45Jy4I9bZOigzxGqmbImH1LaUU2yBo6oyisiKIw+w8Njpqg0AFVY+hMaQFCWzsUB6r4sa0mO7plBd8S/tKT7JgUe7SpVwo2TbBTi+o6UhkEiKSwInvD5hu3C4SRh6+Xv4vcqAdUjaEzpQWIR776gjmdnrCPSYSv6wxKDljdgjzdZ4Pu18XlZYdJ4CkvKwH/2ME/UmEB73F3CoyevT8E6JSoJQ4QdD2jaKFvKqag9RDsaZSnPJ72gjzdZ0ver44K//zJLaLIPuPBbnoFyZ4FOKJqw0cCZIMyCBhSO8cBVWPozCIEiNXPH5D6Nik6yGOkMKRynYcP1trXK1ZVcCjUYjVJRLlp1yt8tkVpDGOFsm7O2GeQYxEIR53a6JSIAtBurAIFCM7p/GtSnh2q8u/a1ZSdduEfffwjFhbwHozv4owMtsu5silOOtU3QLzcWJgfJ7eUpV3uAp1OKfaL6lWU3OZd4WmVnAUrCN02J/vPKJgoS6PzxsLOOIuqdKLdWPkLEKt0yhQ983rdyNfgthXfwX8XtgdLjF/mFImyVIw3FnbGWVSlE+3GykOA6BXWNZ0yRZ8+qtFFR/nZyA+x39S7Z8tk02+fbsG47JP5dKgagU0yp0hUBc44i6p0ot1YFQsQL+mUDbnOXeEjRVFXd89WfduK5z3XDQTIWwKkSdUIiWgDJ6oCZ5xFVTrRbqwcA0S3zwzcqWoGzk8jO1QLOxV9SQX9wZ6pqIg87eopz6uJzT4k+484RaIqcMZZVKUT7cbKMkBoN/hjr6bkTtVSXGPhZeFAYcqt/LYVxiShPwdUffGMIOlRzoWxRYGr5eyQqjG8sbAzzsLFKD50ot1YmQfIOdIyNXaZeN7ID2XF+5NN9iaj0UWP6mOkKMb3ENJva6fI4I2FnXEW6JSoGgeIbguHqSydMoX+pMpXilLx/iRfHXV/fuBlEYYEyLeUc5GINmJMoydUbTCOQhe4gtyh2EOMoTOlBQh9p7n6Q39S5StAcuh4Kq5snYqS8RUk9GHHRH/+n8ga/cPyK+V5Y58GYhEIl4FFpzY6JaIAtBurVYCYUeH+hAm0K4qlj0YT/M0g0+CQYh0xg+W2yO9PzwN9usLSAHIVILegP6kKFSA5GKKSx34L9m346GHj+3k607crXBoL6STok6ga70FC9t0n9CdVluPqSOmP/erMp0i6xX5q7t29Eslgxu5Q7CHG8OYdHDIVAWBgEzp+QNUGo2VzFrQbq3sYIHSmreztfRtV7tcS5adbqbDJfnLoc4qeO1TvRCIZ+UWmI6rGRNH8CHSFgG1SHCPG0Jk+HY5FAXCoWN3DANH90UfDvu6uxTipjBr7Nvc9uUIfY2UwZtOYd28W/bhCG4dz8/dUjbG9bG9DPjO8o2qOKr4vMjW2diiK2kN/UmUYIBQZvCcWXPdQjqnLOPhIKc+fMKF2heWeNWdm1nFjFA2NDITdhRjj82QXHPTRHdphFUmFI9o51D0PkGvyrKJDdR0pwpAPf1ZkXOah9yOcxA6Eg65s1r+9K4DR+ws4ZFdYRiEfUMghZ4E+HYo9xBj0OW00Gs9cjx5xqFitAuQG7XhshFvKw/4kisKl5Br8pUlxjFjBKrdPJtSheouvjOLYwMwlqgguaV/OEHmBXj1KK3CoWK0C5BZ6LHx811UUhQ0S0/5+hbo7NZfIVxAkQ4p1xBSj82RX0KcrLFe1MXro9sJGNwwcq1WA3Anj0aToCjsfmcT4ZkFbcv2OESvo/NRMiL9/DQ10haVDzlqiiqKXeHLLU6qPEResnr/GoWK1CpCZ6DH59PmyW+C0a8jE9b3NxGUDPjwQ9v7yGhvsigluGYUPb1IcI+bMWKJ8sHl1opWKArOWNDx2xKFitQoQI3Jf6QqHcaGxNjN2IgKQHy4cUbWCoL21WUfP29DxgbCMwJCriCYPkndUC0GHZ94WgUPFahUgxhQYl2AnoHqFI+v4naoVUXR7fzTVKC7Ph0DQZVOTD0YqHGasCe68LQKHitUqQKxgQu1Q7CG2BNuL4MM9fPgpVRtupVlTjZJH4EDYO+IrGmhRBkPrxrFjTxkM+jzo/K20C4eK1SpArNBjgr/8TtWWYP7imGbdWtXuNAqGTZTD2TcfuENumYrAMGs1KbrCPohvQXp4c7WXfsdqFSDW0M6psrzyToN9fCUWAXAN2slbT9BxOnkDA2HvgMFTrWu0jqwmLQamxUtbPSfJ0i6lRud83gmvZ1LUocoCxy0rQBJlP6HemrF9gk6nyjZoJ/bSM41CAy6d1h96yszwI9VS0BexuKCYCMvj6akoORBSbYk5MLB0s/4whqmqb4AUbncWZBldYe8TX+1DZiqnZ2jHVYRPlt0PP718Qa009CY+5JeOjYMRJUXtwXFTZWCPov2hnUTVLEBcdEKZr9I+Xs+G0wDSDnVI1Z4KgkTDzNGk6CCPkSCEHFif4CSpur8BEiuDdHmScZ1uKrOgoVNlmcvdUFGQaPLgToTLCjiHcSPWGcYuZeyeUJ1J0f7QTqwKOqNv8tT7PVUrvhn73X8j5Vw7fwNB8ujB2n4ZG/dJdJqYb+QPeOmNkAPrE8YuVfc0QDRkE4rCChTaIc1KBVA3g4a6wn7DcwMNnXLNgSuVX47QykTPJr6eltOMzzJ1BsdN1SpArEAh+wDRM7Hzhv0LwyiS+5OX88tED6Rgf4LVfqAswhDjVfptg7PIxuvz5aFQalcYUNRRtV2x6QlVK4q2Ow+XAIFn6NWjFFbK0ViHYg8pSo9rJS+qdKz8SmuH6jpShOz6ybTbVqpABwYppf7N9hYvNxAjcAhJ4cwyBQgKtVlBEgHUzdFpisum5w4qd6zcmVrKx/5EyUGZ3+Yxjew329WoQ3UDsaKoozoGyDntbomAlBogGgyR0uITql5Agcp/fVUHvq/9ie4Pey3SyPL2WoxJrJQ8MrnAeRc4Kqq7k+lgGSA02McRYxGQKgIkocUDql5BkQSl2lQrg77Fgn2FKr4/oUPhv5Zz8012YfQQfWNRkFWAfAG92uiVCKBuh4shjKlBmqLxuT/BwN438nrF+/fl5YEw3ICbsAqQL4zfj4WOdrgYwhpm36qum1yj9yec2iXCz6GEl/2W1ok9055itRWeWcYA2XyTPT/0jqoV6LWDXqkA6va4RKUDXpyqKHq29vFtHhkFVsjNf/5tb3QVGBuId5YxQFx00qDXDnqlAqjbU1KAZKBg6ZveaeTG7goP93fZ9Ck7mRqppMgG3IQlDZBEOeyXxy8Co6Mdepkn9fidaqmQF9481MTLyvB6fxep5F0beQY3Fgyu8rABN2EZA4SJvCsc7v4Yt8VNxRQXQ3jE6it8QpFPEh2qz5GiDBmEm428Tum41nTI35uIDz4i68hMxp3CBRe/oMGgAYJO75QQ21Rt+OraDDraQaPWhvANSp9S7GPcVFTI5pvsmFUfCz/hZVGGrCg9XydT2KhPkfCZ26x4h9RnglNICmdc/IIGgwYIK4iisIJM5S0nWE2qGehoR55izDV4KZCiVH3apWEgmhQd5DFSKQxon0JfU0oFmDrusgWInrwcT7Da6JSIHF7bgSESRW5MtS4M6USHTrWpV0pumxbVdaRUpBBnFC3skIox0ClGpxOqM1m2AGHS6lDsIVag0w46pSKH13bQcFfY594fkXUkHByhctKzz0D3eFUZnvcnJnyMItm66w5pU8fFbta+MI5pO+PQYB9njEUAvvvvn9/jD1vCkkk7fPXCBAyRKsucm0ba6mrf0EEeI8GgLeMj1JBgp1iQ6ihLW9lAX+f+VrvWQxk47qRj2GLazjg0GCRANl3Tq4n9hwYd7cAQqbIcdGa4F9czHO9PFKkA1XUkHDXZn+S3rSTC48TAoPUbjcbutOPhSbB3rAwcd5kCxHWfTIDsEyAdqjegox0YIlWWAUIjOxgiFTklpiFD2u7Qdpt6ZeRBckS1KOdSiF36kwpDGK9YGTjuMgWIa3o1foHwGnS0A0OkyjJA7jI+nxWLwGlIhpIDDFb6/mSTpZ5j4ENV/GLfR2a3ZHJ2M0HbmPZPqM4E20wdI1NM2xmHBr0HiOtkhC5n6LJN9Sv4ux0YIlWWDj3P+HmnEuExDZkGSpSyP8lWSIvHXefw6tHDRuKaKjJesTJw3HljNA/TdsahQe8B4rp6RNGXbcA46GgHhkiVRYDQgJERtFN9unq6r8XLdSQcAfcn2EffHtKiuoE4o+1mus+YBfrE6HNCdSbLECD5RHtE1RomoW+n+QM62oEhUhUgQK7Jb7VIxILtTzj+bpLKHbrMXhNY7zNmwXjFysBxlyFAXFcPeE3/d8UU0NEODJEqiwABpy8opp1YLMD+JNdTrxqxKIbzPmMWWj90O6E6E/pv7QvjmLYzDg16CxDaTxTjQNWaaZvza9DRDhRJlaXTFjF+vmwmomb7k2yl8/dU32uW+Na0Jb4ojFesDBy3yBhpTNsZhwa9BMgmhyEu1z1y7lw9NOhoB2fMPc6Yn1I1BgWs2xlnbH9ywMuwsD+56xZ0TabL58sDpVSLl4XAKH2CkqvgZkHpAo6bKAO7FR0j2olVRQFC2++U/V27Geiwgw6puAP+3Q6USVDmgKoxzI5TN0C26Fnb17ePzGGIYTpskl9fB0oWGFePu7Z4uYEU4Rxp4ZQ9yqCYjhe6SApnaCdWFQQI7SbKoH93MHP10KCjHawgLRz0kKoxNLKDIVLhCYwSK09P9xmgg2WgHGeoCT7yWfrZj46PCcMEbJWg+wHVmeAoqOYO7cSq5ADJ0+8jqi58ZO+xfT0B3gU62uFkiCmX8H2QB2siQh8LewAbvG2srbXmDYhvGK9UGewZFy1ACgaHbrtN24mYA//PDp3mcAz7nqoxNGKkjAs69SnpthUn6PsZRYv+p6JkbMZqkQJks9imXHNO2r9tsoqjoz2c+SsKY2jkFEP8SDUY2mjK39N9PghybGsD43RM0UTmsigBQp90f46QDcQJ2t2h3VQYwP+1B2OcKstvHyRivWzU55EvvR2q60hVvKa/rTL6exd5+nlI1YhFCJD8q486VIvwir62KI1AR3uI4g7FHmLDMxTrUQYnT7sSYa9jITDmGUWLQU9FRWR9d7gPjLFBfXdCB8h3//r5yLZPk9De1BsSZ8F77CFAmhTHiA2vGIQWZWnkaVdXWa52DlSeTmmycXG83YWxcfKFa0IFiN5HXVxcHKvip4hGp1aToKM92Sxl/91YQwbhW8rSydONRIRJuypPp3InOsKJYuEIY+PkC9eECBA+80AJkQgP0NYObaXCEt7nBspb70PgGQPRoyydPKg7VJ8jhcFwZxSVp1P5xctEFIRxoUvu5JPQIVVjaLCP/WIxQb7yH9GvbV4WJoqm38puAjq6wXLeodhDjCENeUsa0qRaGQR2LNjoYfwfKF1Y+HRqEpxgqqPagF0TbHpA1RwlBx/+6+X31DL0Sujx/rYMWfASA+93Q0e5y1k0eeD3tnlgCPRplxqpljIPlNKvgk9DO1HRdGoSAr7wxOUUIKBXLt0n34GRM/dWknkw5u4wiw2E/e0ehZX2SR7ouxgiVreD5RxJo0imrku0L3ymU5PQP+cU5BrXACE6uwECQ+PFzyTijKtR6rKKLApMRN7SqSl85JBhq+iq6OoLIcCpC6VV4/BZ7mRLo+GtDBP0iO5nlCtmoO3rO52ahPRqn/SqQ7UQdQmQKCq+Go5TKEA0GCZVbrd3VHaiVXdCplMTeElDNJxi9VT4xxBmofeITVaOVHiEzywGARIzkCdU7VBy8OjR2o9Fl/ZlI3A6dUMU+Z1p8YNUuU2UhcGJzxqNRjNE2s5nF8fZOGzQPvz08gW1e08Z6ZRG4kwyauz6fooRH3iH7ttUS4X+eNtvTIPPL44+Mh053psfRX5nskWjxHQq6PUbVj66UCpev/3lLmjDD8wgp1joB6q2DKOoseN7RlsEst8fVKMO1Q0kJK84qUpCpbM6yP+wv/XIFb3XKO16FG35gQCJCZATqvao+7Uf0bYSQhyqwCkJg+vly+fmwerRpDhGgsIKWPpTmdjQHxiqKxzvdUKRU2aFnWUOEr3P4Fj8kGoTCQa2PKNohU4/rmHcOxR7SChe06duWf0Zh3b9kS+1A+F41yzKLGWQaLuUtc+IZvyYTihYEd/Rt22qvnnNReWkzBVjEnzSL5yHt5TlXZ3joNApacGzKo3ik7L2Gdht7o/phEAHP5Pi71R9cS6vfvK7W3ZfpoFd/UOQ9AiSp1RdWfiNO7NqrJQ8Cn09gwEsZZ9xF0VOMMchKN4KpTpVpFGzwL7+yWcV7dyPEVcIErlfdrpQFB0YQnj5rt55nDN4u1U7FP09KdJXHRhlb7xtwMZhyO+SfUe1KD2OKF/UYbmdBY4Si3ICIzvmJDASUTH5ocN7qi4EvS7jC2wdDl/Lrz4GJlXZ/1DDe7cyJwnzLMM0Kn+8d5wCp1ccJjTiRUihgwaIpoARb4GyKfn2izosx2UGBv3uUySsGqmoEYzt7xQbiBXS8fnwKkDX8GDIrnC8PjIVKbuRXHtVxQxUZmAAM235x7YmkFImipSSqhWkVV5ury+LUgJE4z1IAOVTFUWdD3/55S0vg/Ldm78/laNRS4XfY2TQt0qObU3IJomLbH+5gRhDn6y/l6pq0Lk8QgRJzpCpqafl0X9GfV9OlQWFUrEaceVbqi1RAgxIpce2JjCOxxRNxAr6tjCp1TXoXC6uS7MNdCoViJTRQEVq8NufX/Z5PZM//a+fn8iR3FJqtCVYJRQiyuUcadXxIGIcxk/b5oSqFaRWb0mtmlQXComUjrfTLQfo8CnFENlQYW6PsKU2x7bzyK9vvae6gVjxzYJ+DwFjUw35TNQVxS4mLjq1OradhQ6OT58uTpTbpOLt0d6yqSxANJnRP192C96WsnBg9D5F7Y5tZ1Hky6MXdfXQSKRy8pSrQ3UdWWZqe2w7C1b7hJXjgKo1OFibiSARCwr61wN9dFjSD3RWRdCn+kJRZOWAc1KrLbHA1CZArmG2igWbVuX2+G7twMC1P7a9i4LBofu+w+qRigWGPtSTPO1KxOJu4s+R2h/bTiPbG37KfpMjFu68ou8tyoVGIrUmX1F0DvyEcmHg3F8/9NNetJQquwv78vK4yIVRnOrs4cNGvGh9nwZ9WQyygRtdtKg2kXWk9mDcUxk1XlRxz5gLTEYHislIFIODiMW4U9cExnDx+O7qWzSupfbBUvfVRE8+vn6whlM6JoTFOqWbxUIGyDjMerHQubKU20qpWNQ3YIaRjFq//vTLa+q1QJ8c+rwzWS74ke406NNyoWdDIS6ZEdUWM+IWHdQlf6tJ4Cg5IL/fZwPb41Ul+A6MnNf0aVcsGfjP/UIHEOnEBtW7uVqNtsRVCvcY8Q6GT6WMumWuKLrvI3W55zkwNEsZHBqJrJhBNtteZL+5/hwJwZA9SlfKtdchNrb6yPbzp4vnSohdZJs/+WZpg0OzChBDdKBcXGS/uf6El2Eg/ZKR6Ank4X+snblu6vVKwSr5lGpThQmKa5Y6ODSrALHkTwW/GM8GBucUBx/oknQse7ZFTCAv1Tb/Z0NJuSVJC6nHohyWPjg0EllhiZ6huSbTo/oYuXeQEu7/tkDPlRdhFSCO6Nz+Ht6qrx/uanKUm4p7Av1dUYT8njE9m64jSwuO0n/4sNF03RctKvR7RVGWfDVZiG9ADMUqQDyS3wLTQZZib0Jg1Pp7c8tgFSABWIK0qxZfjF0HsMOKEGRp16eLlhKixctFCZTzKJLJMt1sWJRVgJRAvqIkoqapF07Ql5HsrgLjNthmRVnoO48VqYvgqBSpelX5iHS/aTQ693mPMY9VgFREvqG/lrKC5RzpISlXwXW5Yg4SWVEx+sq8UpexECLmqHib8jFSGAb3TAlxyr4iXYvW0tVKYQ82XFFH8nRsgwHSASPG65PwbwP+bSCuSGXUGIa4M/g+gl1XrFhxF/8fN7PpBBRH1F8AAAAASUVORK5CYII=;" vertex="1" parent="1">
          <mxGeometry x="1187.5" y="166" width="57" height="57" as="geometry" />
        </mxCell>
        <mxCell id="oanOTafGp6MQvB_tRIH2-40" value="&lt;div style=&quot;text-align: start; font-family: Menlo, Monaco, &amp;quot;Courier New&amp;quot;, monospace; line-height: 18px; white-space: pre;&quot;&gt;&lt;div style=&quot;line-height: 18px;&quot;&gt;&lt;div style=&quot;color: rgb(204, 204, 204); background-color: rgb(31, 31, 31); line-height: 18px;&quot;&gt;&lt;span style=&quot;color: rgb(220, 220, 170);&quot;&gt;_merge_nodes_then_upsert&lt;/span&gt;&lt;/div&gt;&lt;/div&gt;&lt;/div&gt;" style="rounded=1;whiteSpace=wrap;html=1;" vertex="1" parent="1">
          <mxGeometry x="980" y="631" width="235" height="26" as="geometry" />
        </mxCell>
        <mxCell id="oanOTafGp6MQvB_tRIH2-41" value="&lt;div style=&quot;text-align: start; font-family: Menlo, Monaco, &amp;quot;Courier New&amp;quot;, monospace; line-height: 18px; white-space: pre;&quot;&gt;&lt;div style=&quot;line-height: 18px;&quot;&gt;&lt;div style=&quot;color: rgb(204, 204, 204); background-color: rgb(31, 31, 31); line-height: 18px;&quot;&gt;&lt;span style=&quot;color: rgb(220, 220, 170);&quot;&gt;_merge_edges_then_upsert&lt;/span&gt;&lt;/div&gt;&lt;/div&gt;&lt;/div&gt;" style="rounded=1;whiteSpace=wrap;html=1;" vertex="1" parent="1">
          <mxGeometry x="1243" y="631" width="235" height="26" as="geometry" />
        </mxCell>
        <mxCell id="oanOTafGp6MQvB_tRIH2-46" value="&lt;font style=&quot;font-size: 24px;&quot;&gt;知识图谱RAG查询&lt;/font&gt;" style="text;html=1;align=center;verticalAlign=middle;whiteSpace=wrap;rounded=0;" vertex="1" parent="1">
          <mxGeometry x="870" y="48" width="158" height="30" as="geometry" />
        </mxCell>
        <mxCell id="oanOTafGp6MQvB_tRIH2-47" value="&lt;div style=&quot;text-align: start; font-family: Menlo, Monaco, &amp;quot;Courier New&amp;quot;, monospace; line-height: 18px; white-space: pre;&quot;&gt;&lt;font color=&quot;#b00000&quot;&gt;&lt;span style=&quot;caret-color: rgb(176, 0, 0);&quot;&gt;使用大模型从查询解析出低级主题词、高级主题词&lt;/span&gt;&lt;/font&gt;&lt;/div&gt;" style="rounded=1;whiteSpace=wrap;html=1;" vertex="1" parent="1">
          <mxGeometry x="1104.5" y="91" width="223" height="60" as="geometry" />
        </mxCell>
        <mxCell id="oanOTafGp6MQvB_tRIH2-55" style="edgeStyle=orthogonalEdgeStyle;rounded=0;orthogonalLoop=1;jettySize=auto;html=1;exitX=0.5;exitY=1;exitDx=0;exitDy=0;" edge="1" parent="1" source="oanOTafGp6MQvB_tRIH2-49">
          <mxGeometry relative="1" as="geometry">
            <mxPoint x="1212" y="398" as="targetPoint" />
            <Array as="points">
              <mxPoint x="1345" y="354" />
              <mxPoint x="1213" y="354" />
              <mxPoint x="1213" y="398" />
            </Array>
          </mxGeometry>
        </mxCell>
        <mxCell id="oanOTafGp6MQvB_tRIH2-49" value="低级主题词" style="whiteSpace=wrap;align=center;verticalAlign=middle;fontStyle=1;strokeWidth=3;fillColor=#FFFFCC" vertex="1" parent="1">
          <mxGeometry x="1300" y="239" width="90" height="67" as="geometry" />
        </mxCell>
        <mxCell id="oanOTafGp6MQvB_tRIH2-50" value="" style="edgeStyle=orthogonalEdgeStyle;rounded=0;orthogonalLoop=1;jettySize=auto;html=1;exitX=0;exitY=0.5;exitDx=0;exitDy=0;entryX=1;entryY=0.5;entryDx=0;entryDy=0;entryPerimeter=0;" edge="1" parent="1" source="oanOTafGp6MQvB_tRIH2-3" target="oanOTafGp6MQvB_tRIH2-21">
          <mxGeometry relative="1" as="geometry">
            <mxPoint x="174" y="554" as="sourcePoint" />
            <mxPoint x="18" y="554" as="targetPoint" />
          </mxGeometry>
        </mxCell>
        <mxCell id="oanOTafGp6MQvB_tRIH2-21" value="upsert: 实体、实体类别、实体描述、实体主题词" style="text;html=1;align=center;verticalAlign=middle;whiteSpace=wrap;rounded=0;" vertex="1" parent="1">
          <mxGeometry x="65" y="544" width="60" height="30" as="geometry" />
        </mxCell>
        <mxCell id="oanOTafGp6MQvB_tRIH2-52" value="" style="edgeStyle=orthogonalEdgeStyle;rounded=0;orthogonalLoop=1;jettySize=auto;html=1;exitX=1;exitY=0.5;exitDx=0;exitDy=0;entryX=0;entryY=0.5;entryDx=0;entryDy=0;entryPerimeter=0;" edge="1" parent="1" source="oanOTafGp6MQvB_tRIH2-4" target="oanOTafGp6MQvB_tRIH2-22">
          <mxGeometry relative="1" as="geometry">
            <mxPoint x="487" y="556" as="sourcePoint" />
            <mxPoint x="616" y="556" as="targetPoint" />
          </mxGeometry>
        </mxCell>
        <mxCell id="oanOTafGp6MQvB_tRIH2-53" value="&lt;div style=&quot;text-align: start; font-family: Menlo, Monaco, &amp;quot;Courier New&amp;quot;, monospace; line-height: 18px; white-space: pre;&quot;&gt;&lt;br&gt;&lt;/div&gt;" style="rounded=1;whiteSpace=wrap;html=1;" vertex="1" parent="1">
          <mxGeometry x="1034" y="396" width="359" height="108" as="geometry" />
        </mxCell>
        <mxCell id="oanOTafGp6MQvB_tRIH2-22" value="upsert：源实体、目标实体、实体关系描述、关系主题词、关系强度" style="text;html=1;align=center;verticalAlign=middle;whiteSpace=wrap;rounded=0;" vertex="1" parent="1">
          <mxGeometry x="507" y="551" width="89" height="13" as="geometry" />
        </mxCell>
        <mxCell id="oanOTafGp6MQvB_tRIH2-34" value="关系向量库" style="shape=cylinder3;whiteSpace=wrap;html=1;boundedLbl=1;backgroundOutline=1;size=15;fillColor=#dae8fc;strokeColor=#6c8ebf;" vertex="1" parent="1">
          <mxGeometry x="1251" y="412" width="60" height="80" as="geometry" />
        </mxCell>
        <mxCell id="oanOTafGp6MQvB_tRIH2-35" value="实体向量库" style="shape=cylinder3;whiteSpace=wrap;html=1;boundedLbl=1;backgroundOutline=1;size=15;fillColor=#d5e8d4;strokeColor=#82b366;" vertex="1" parent="1">
          <mxGeometry x="1119" y="412" width="60" height="80" as="geometry" />
        </mxCell>
        <mxCell id="oanOTafGp6MQvB_tRIH2-56" value="向量检索" style="text;html=1;align=center;verticalAlign=middle;whiteSpace=wrap;rounded=0;" vertex="1" parent="1">
          <mxGeometry x="1186" y="324" width="60" height="30" as="geometry" />
        </mxCell>
      </root>
    </mxGraphModel>
  </diagram>
</mxfile>
